<?xml version="1.0" encoding="utf-8"?>
<!-- Generator: Adobe Illustrator 24.0.1, SVG Export Plug-In . SVG Version: 6.00 Build 0)  -->
<svg version="1.1" id="Layer_1" xmlns="http://www.w3.org/2000/svg" xmlns:xlink="http://www.w3.org/1999/xlink" x="0px" y="0px"
	 viewBox="0 0 302.81 50.91" style="enable-background:new 0 0 302.81 50.91;" xml:space="preserve">
<style type="text/css">
	.st0{fill:#FFFFFF;}
</style>
<g>
	<path class="st0" d="M16.39,43.87v-0.15l0.17-0.05c0.32-0.09,0.62-0.33,0.91-0.73c0.39-0.54,0.63-1.35,0.71-2.44V10.21
		c-0.07-1.05-0.29-1.85-0.67-2.39c-0.3-0.43-0.62-0.69-0.95-0.78l-0.17-0.05V6.84H25v0.15l-0.17,0.04
		c-0.32,0.09-0.62,0.34-0.91,0.73c-0.4,0.55-0.64,1.37-0.72,2.45V40.5c0.04,0.61,0.13,1.11,0.26,1.5s0.28,0.71,0.46,0.94
		c0.17,0.24,0.34,0.41,0.5,0.52c0.16,0.11,0.3,0.18,0.41,0.21L25,43.72v0.15H16.39z"/>
	<path class="st0" d="M34.88,43.97h-8.61v-0.15l0.17-0.05c0.1-0.03,0.24-0.09,0.4-0.21s0.34-0.28,0.51-0.51
		c0.17-0.23,0.32-0.55,0.45-0.94c0.13-0.4,0.21-0.9,0.26-1.5V27.75c0-0.56-0.02-1.05-0.07-1.47s-0.11-0.77-0.19-1.05
		c-0.08-0.29-0.16-0.52-0.26-0.71c-0.09-0.18-0.19-0.33-0.28-0.43c-0.09-0.1-0.18-0.18-0.26-0.22c-0.08-0.05-0.14-0.08-0.18-0.08
		l-0.08-0.01v-0.22c0.47,0,0.91-0.01,1.31-0.04c0.87-0.06,1.61-0.16,2.2-0.31c0.59-0.15,1.08-0.32,1.46-0.51
		c0.38-0.19,0.67-0.37,0.87-0.55c0.2-0.17,0.33-0.32,0.4-0.44l0.1-0.18v3.41c0.27-0.26,0.56-0.52,0.85-0.76
		c2.19-1.75,4.58-2.63,7.16-2.63h0.12c1.36,0.05,2.63,0.33,3.81,0.83c1.72,0.77,3.01,1.96,3.88,3.56c0.55-0.65,1.14-1.24,1.77-1.76
		c2.2-1.75,4.59-2.63,7.18-2.63h0.12c1.35,0.05,2.56,0.31,3.63,0.77c0.06,0.02,0.12,0.04,0.17,0.06c1.5,0.66,2.68,1.66,3.56,3
		c0.87,1.34,1.31,2.82,1.31,4.43v10.77c0.04,0.6,0.13,1.1,0.26,1.5c0.13,0.4,0.28,0.71,0.46,0.94c0.17,0.23,0.34,0.4,0.5,0.51
		c0.16,0.11,0.3,0.18,0.41,0.21l0.17,0.05v0.15h-8.61v-0.15l0.17-0.05c0.11-0.03,0.25-0.09,0.41-0.21c0.16-0.11,0.33-0.28,0.5-0.51
		c0.17-0.23,0.32-0.54,0.45-0.94c0.13-0.4,0.21-0.9,0.26-1.5V28.01c-0.01-0.49-0.08-1.07-0.2-1.76s-0.35-1.36-0.69-2.02
		c-0.34-0.66-0.83-1.2-1.47-1.6c-0.54-0.34-1.22-0.51-2.05-0.51c-0.43,0-0.87,0.05-1.33,0.14h-0.01c-2.62,0.57-4.84,1.96-6.67,4.2
		c0.49,1.06,0.73,2.18,0.73,3.36v10.77c0.04,0.6,0.13,1.1,0.26,1.5c0.13,0.4,0.28,0.71,0.46,0.94c0.17,0.23,0.34,0.4,0.5,0.51
		c0.16,0.11,0.3,0.18,0.41,0.21l0.15,0.05v0.15h-8.6v-0.15l0.17-0.05c0.1-0.03,0.24-0.09,0.4-0.21s0.33-0.28,0.5-0.51
		c0.17-0.23,0.32-0.54,0.45-0.94c0.13-0.4,0.22-0.9,0.26-1.5V28.01c-0.01-0.49-0.08-1.07-0.21-1.76c-0.13-0.68-0.36-1.36-0.69-2.02
		s-0.82-1.2-1.46-1.6c-0.55-0.34-1.24-0.51-2.07-0.51c-0.42,0-0.86,0.05-1.33,0.14c-2.28,0.49-4.29,1.63-6.01,3.43V40.6
		c0.08,1.08,0.32,1.89,0.72,2.44c0.29,0.41,0.59,0.65,0.91,0.73l0.17,0.05V43.97z"/>
	<path class="st0" d="M78.32,43.87h-8.61v-0.15l0.17-0.05c0.32-0.08,0.62-0.32,0.91-0.73c0.39-0.54,0.63-1.35,0.71-2.44V27.63
		c0-1.83-0.26-3.05-0.8-3.66c-0.15-0.17-0.3-0.27-0.44-0.29l-0.08-0.01v-0.22c0.47,0,0.91-0.01,1.31-0.04
		c1.57-0.12,2.79-0.4,3.66-0.83c0.65-0.33,1.07-0.66,1.27-0.99l0.1-0.17v10.47c1.13-5.19,2.85-8.46,5.17-9.83
		c0.77-0.45,1.59-0.68,2.45-0.68c0.81,0,1.67,0.2,2.58,0.6l-1.35,3.25l-0.4-0.31c-0.27-0.2-0.62-0.41-1.05-0.63
		c-0.44-0.23-0.92-0.38-1.44-0.47c-0.17-0.03-0.34-0.05-0.51-0.05c-0.35,0-0.75,0.08-1.19,0.25c-0.45,0.17-0.9,0.57-1.36,1.21
		c-0.65,1.16-1.18,2.39-1.58,3.7c-0.67,2.13-1.11,4.15-1.32,6.06v5.51c0.08,1.08,0.32,1.89,0.72,2.44c0.29,0.41,0.59,0.66,0.91,0.73
		l0.17,0.05V43.87z"/>
	<path class="st0" d="M90.73,43.94c-1.74,0-3.09-0.36-4.06-1.08c-1.1-0.83-1.66-2.09-1.66-3.77c0-0.23,0.01-0.47,0.04-0.73
		c0.15-1.75,0.98-3.27,2.5-4.56c1.2-1.02,2.8-1.86,4.81-2.53c1.87-0.61,3.75-1.02,5.63-1.23v-3.94c0-1.13-0.14-1.98-0.41-2.56
		c-0.27-0.58-0.69-0.97-1.25-1.19c-0.56-0.21-1.25-0.32-2.09-0.32c-0.43,0.03-0.84,0.1-1.25,0.19c-0.51,0.26-0.93,0.67-1.26,1.23
		c-0.33,0.55-0.59,1.13-0.77,1.73c-0.18,0.6-0.31,1.13-0.39,1.57l-0.1,0.65l-3.08-1.16c0.57-1.45,1.55-2.6,2.93-3.47
		c1.38-0.87,2.95-1.3,4.69-1.3c1.03,0,2.02,0.16,2.98,0.49c0.03,0.02,0.05,0.03,0.08,0.04c0.03,0.01,0.04,0.01,0.05,0.01
		c1.01,0.38,1.92,0.92,2.73,1.63l0.37,0.38c0.29,0.31,0.55,0.63,0.77,0.96c0.02,0.03,0.04,0.06,0.06,0.09l0.12,0.22
		c0.14,0.23,0.26,0.46,0.36,0.69l0.18,0.47c0.16,0.51,0.27,1.02,0.31,1.53v9.37c-1.54,1.63-3.2,2.97-4.97,4.04
		c-0.04-0.21-0.06-0.44-0.06-0.67V30.55c-0.8,0.09-1.82,0.27-3.05,0.54c-0.99,0.27-1.88,0.86-2.67,1.78
		c-1.09,1.27-1.63,3.09-1.63,5.46c0,0.31,0.01,0.63,0.04,0.96c0.05,0.91,0.23,1.63,0.54,2.16c0.31,0.54,0.71,0.91,1.19,1.14
		c0.49,0.22,1.02,0.33,1.6,0.33c0.36,0,0.73-0.03,1.12-0.1c0.71-0.17,1.34-0.34,1.89-0.51c0.36-0.12,0.55-0.18,0.57-0.18v-0.01
		l0.15-0.04c0.01-0.02,0.03-0.03,0.06-0.03c0.32-0.12,0.56-0.24,0.74-0.35l0.23-0.14c1.49-0.95,2.91-2.11,4.25-3.47l0.67-0.71
		c0.88-0.98,1.63-1.92,2.26-2.83c0.62-0.91,1.2-1.8,1.72-2.68l0.45-0.73v-3.48c0-1.04-0.09-1.87-0.27-2.52
		c-0.14-0.52-0.31-0.9-0.53-1.14c-0.16-0.18-0.31-0.28-0.45-0.31l-0.06-0.01v-0.22c0.46,0,0.9-0.01,1.31-0.04l0.86-0.08
		c0.46-0.07,0.75-0.12,0.87-0.14c0.41-0.08,0.77-0.17,1.08-0.27c0.69-0.24,1.2-0.49,1.53-0.74l0.33-0.28
		c0.24-0.25,0.36-0.41,0.36-0.47v3.36c1.25-1.21,2.65-2.1,4.2-2.67c1.21-0.45,2.44-0.67,3.68-0.67h0.19
		c1.35,0.06,2.57,0.32,3.65,0.77l0.17,0.06c1.5,0.67,2.68,1.67,3.56,3.01c0.87,1.34,1.31,2.81,1.31,4.42v10.77
		c0.08,1.09,0.31,1.9,0.71,2.44c0.29,0.4,0.59,0.65,0.91,0.73l0.17,0.05v0.15h-8.6v-0.15l0.15-0.05c0.32-0.09,0.62-0.33,0.91-0.73
		c0.4-0.54,0.64-1.35,0.72-2.44V27.93c-0.01-0.63-0.12-1.4-0.33-2.3c-0.21-0.9-0.63-1.71-1.25-2.43s-1.53-1.11-2.73-1.17
		c-0.21,0-0.4,0.01-0.59,0.03c-1.28,0.14-2.54,0.53-3.77,1.18l-0.45,0.26c-0.89,0.53-1.72,1.18-2.48,1.95
		c-1.24,1.21-2.25,2.36-3.04,3.47c-0.79,1.1-1.49,2.18-2.12,3.23c-0.53,0.89-1.11,1.8-1.74,2.72c-0.63,0.92-1.39,1.88-2.29,2.88
		c-0.35,0.38-0.7,0.75-1.05,1.09v1.09c0,1.28,0.21,2.25,0.63,2.91c0.31,0.47,0.64,0.76,0.99,0.86l0.19,0.05v0.15h-3.68
		c-0.97,0-1.77-0.37-2.4-1.1c-0.12-0.13-0.22-0.27-0.31-0.42c-0.08,0.03-0.14,0.04-0.19,0.06s-0.12,0.04-0.19,0.08
		c-0.03,0-0.07,0.01-0.13,0.04c-0.98,0.34-2.25,0.68-3.81,1.01C92.88,43.81,91.74,43.94,90.73,43.94z M114.96,43.9h-8.6v-0.15
		c0.09,0,0.25-0.06,0.47-0.19c0.16-0.09,0.33-0.24,0.5-0.45c0.26-0.31,0.49-0.83,0.68-1.57c0.06-0.29,0.1-0.63,0.13-1v-7.42
		l0.46-0.77c0.57-0.96,1.21-1.94,1.91-2.94c0.7-1,1.59-2.04,2.66-3.13v14.26c0.04,0.6,0.13,1.1,0.26,1.5
		c0.13,0.4,0.28,0.71,0.45,0.94c0.17,0.23,0.34,0.4,0.51,0.51c0.17,0.11,0.3,0.18,0.4,0.22l0.17,0.04V43.9z"/>
	<path class="st0" d="M172.1,43.86h-8.6V43.7l0.15-0.05c0.32-0.09,0.62-0.33,0.91-0.73c0.4-0.54,0.64-1.35,0.72-2.44V25.59h-18.96
		v14.89c0.08,1.09,0.31,1.9,0.71,2.44c0.3,0.4,0.6,0.65,0.91,0.73l0.17,0.05v0.15h-8.6V43.7l0.15-0.05
		c0.32-0.09,0.62-0.33,0.91-0.73c0.4-0.54,0.64-1.35,0.72-2.44V10.2c-0.08-1.05-0.3-1.85-0.68-2.39c-0.29-0.43-0.6-0.69-0.94-0.78
		l-0.17-0.05V6.83h8.6v0.15l-0.15,0.04c-0.32,0.09-0.62,0.34-0.91,0.73c-0.4,0.55-0.64,1.36-0.72,2.44v14.89h18.96V10.2
		c-0.08-1.05-0.3-1.85-0.68-2.39c-0.3-0.43-0.61-0.69-0.94-0.78l-0.17-0.05V6.83h8.6v0.15l-0.17,0.04c-0.1,0.03-0.24,0.11-0.4,0.22
		c-0.17,0.11-0.34,0.28-0.51,0.51c-0.17,0.23-0.32,0.55-0.45,0.94c-0.13,0.4-0.21,0.9-0.26,1.5v30.29c0.04,0.6,0.13,1.1,0.26,1.5
		c0.13,0.4,0.28,0.71,0.45,0.94c0.17,0.23,0.34,0.4,0.51,0.52c0.17,0.12,0.3,0.19,0.4,0.21l0.17,0.05V43.86z"/>
	<path class="st0" d="M184.17,44.09c-2.31,0-4.47-0.69-6.48-2.07c-2.54-1.81-4.1-4.26-4.67-7.33c-0.12-0.67-0.18-1.33-0.18-2
		c0-2.31,0.68-4.47,2.05-6.48c1.83-2.54,4.27-4.1,7.33-4.67c0.67-0.12,1.33-0.18,2-0.18c2.31,0,4.48,0.69,6.5,2.07
		c2.52,1.81,4.08,4.26,4.67,7.33c0.12,0.66,0.18,1.32,0.18,1.98c0,2.31-0.69,4.48-2.07,6.51c-1.82,2.53-4.27,4.09-7.33,4.67
		C185.5,44.03,184.84,44.09,184.17,44.09z M185.56,43.45l0.29-0.01l0.48-0.08c1.18-0.34,2.11-1.26,2.78-2.76
		c0.67-1.5,1.01-3.3,1.01-5.42c0-1.1-0.1-2.26-0.31-3.47c-0.34-1.87-0.87-3.54-1.59-5.01c-0.72-1.46-1.55-2.62-2.49-3.47
		s-1.9-1.28-2.89-1.28c-0.17,0.03-0.34,0.05-0.51,0.08c-0.17,0.03-0.34,0.06-0.5,0.1c-1.1,0.42-1.97,1.36-2.59,2.83
		c-0.63,1.47-0.94,3.22-0.94,5.26c0,1.1,0.1,2.26,0.31,3.47c0.34,1.87,0.87,3.54,1.58,5.01c0.71,1.46,1.54,2.62,2.48,3.47
		C183.61,43.02,184.57,43.45,185.56,43.45z"/>
	<path class="st0" d="M204.37,43.87h-0.12c-1.19-0.02-2.47-0.27-3.85-0.76c-1.12-0.42-2.05-0.84-2.8-1.27
		c-0.58-0.33-1.02-0.6-1.32-0.8l3.43-4.47l0.12,0.09l-0.05,0.14c-0.03,0.08-0.04,0.21-0.04,0.38c0,0.37,0.11,0.76,0.32,1.18
		l0.37,0.6h0.01c0.64,1,1.38,1.88,2.22,2.63c1.09,0.97,2.17,1.45,3.26,1.45c0.23,0,0.46-0.02,0.69-0.06
		c0.44-0.15,0.86-0.37,1.27-0.64l0.27-0.19c0.52-0.49,0.78-1.1,0.78-1.85c0-0.23-0.02-0.45-0.06-0.67c-0.2-0.8-0.54-1.49-1.01-2.08
		c-0.39-0.47-0.88-0.96-1.45-1.48c-0.79-0.71-1.62-1.38-2.49-2.02c-0.87-0.64-1.68-1.21-2.41-1.71l-1.01-0.69
		c-2.51-1.75-3.82-3.5-3.94-5.25V26.2c0-1.28,0.65-2.52,1.95-3.72c1-0.92,2.41-1.37,4.22-1.37c0.97,0,2.04,0.14,3.21,0.41
		c1.18,0.27,2.18,0.57,3,0.89c0.83,0.32,1.35,0.54,1.56,0.65l-1.95,4.6l-0.14-0.05l-0.1-0.41c-0.06-0.27-0.22-0.61-0.48-1.04
		c-0.26-0.43-0.67-0.89-1.23-1.37c-0.57-0.44-1.19-0.87-1.85-1.29c-0.66-0.41-1.33-0.76-2.01-1.05s-1.31-0.42-1.91-0.42
		c-0.4,0-0.77,0.08-1.12,0.24c-0.62,0.32-0.92,0.6-0.92,0.85c0,0.44,0.43,1.09,1.3,1.92c1.14,1.1,3.13,2.56,5.97,4.36
		c1.4,0.89,2.51,1.77,3.33,2.63c1.75,1.58,2.62,3.2,2.62,4.84c0,1.14-0.39,2.24-1.17,3.31c-0.56,0.77-1.27,1.51-2.14,2.22
		c-0.15,0.13-0.33,0.26-0.51,0.39C207.09,43.51,205.83,43.87,204.37,43.87z"/>
	<path class="st0" d="M220.87,43.87h-0.12c-1.19-0.02-2.47-0.27-3.85-0.76c-1.12-0.42-2.05-0.84-2.8-1.27
		c-0.58-0.33-1.02-0.6-1.32-0.8l3.43-4.47l0.12,0.09l-0.05,0.14c-0.03,0.08-0.04,0.21-0.04,0.38c0,0.37,0.11,0.76,0.32,1.18
		l0.37,0.6h0.01c0.64,1,1.38,1.88,2.22,2.63c1.09,0.97,2.17,1.45,3.26,1.45c0.23,0,0.46-0.02,0.69-0.06
		c0.44-0.15,0.86-0.37,1.27-0.64l0.27-0.19c0.52-0.49,0.78-1.1,0.78-1.85c0-0.23-0.02-0.45-0.06-0.67c-0.2-0.8-0.54-1.49-1.01-2.08
		c-0.39-0.47-0.88-0.96-1.45-1.48c-0.79-0.71-1.62-1.38-2.49-2.02c-0.87-0.64-1.68-1.21-2.41-1.71l-1.01-0.69
		c-2.51-1.75-3.82-3.5-3.94-5.25V26.2c0-1.28,0.65-2.52,1.95-3.72c1-0.92,2.41-1.37,4.22-1.37c0.97,0,2.04,0.14,3.21,0.41
		c1.18,0.27,2.18,0.57,3,0.89c0.83,0.32,1.35,0.54,1.56,0.65l-1.95,4.6l-0.14-0.05l-0.1-0.41c-0.06-0.27-0.22-0.61-0.48-1.04
		c-0.26-0.43-0.67-0.89-1.23-1.37c-0.57-0.44-1.19-0.87-1.85-1.29c-0.66-0.41-1.33-0.76-2.01-1.05s-1.31-0.42-1.91-0.42
		c-0.4,0-0.77,0.08-1.12,0.24c-0.62,0.32-0.92,0.6-0.92,0.85c0,0.44,0.43,1.09,1.3,1.92c1.14,1.1,3.13,2.56,5.97,4.36
		c1.4,0.89,2.51,1.77,3.33,2.63c1.75,1.58,2.62,3.2,2.62,4.84c0,1.14-0.39,2.24-1.17,3.31c-0.56,0.77-1.27,1.51-2.14,2.22
		c-0.15,0.13-0.33,0.26-0.51,0.39C223.59,43.51,222.32,43.87,220.87,43.87z"/>
	<path class="st0" d="M235.78,43.87c-1.73,0-3.08-0.36-4.06-1.08c-1.1-0.84-1.66-2.11-1.66-3.81c0-0.22,0.01-0.45,0.03-0.69
		c0.16-1.75,1-3.27,2.52-4.56c1.21-1.01,2.81-1.85,4.8-2.52c1.88-0.63,3.77-1.04,5.65-1.25v-3.94c0-1.13-0.14-1.98-0.41-2.56
		c-0.27-0.58-0.69-0.97-1.25-1.19c-0.56-0.21-1.26-0.32-2.11-0.32c-0.42,0.03-0.83,0.1-1.23,0.19c-0.51,0.27-0.92,0.67-1.25,1.23
		s-0.59,1.13-0.78,1.74c-0.19,0.61-0.32,1.13-0.38,1.57l-0.12,0.65l-3.08-1.16c0.57-1.45,1.55-2.6,2.94-3.47
		c1.39-0.87,2.95-1.3,4.68-1.3c1.03,0,2.02,0.17,2.98,0.5l0.13,0.04c0.94,0.35,1.76,0.82,2.46,1.41l0.53,0.49
		c0.04,0.03,0.08,0.07,0.12,0.12c0.27,0.28,0.52,0.59,0.73,0.91l0.09,0.15c0.22,0.33,0.39,0.64,0.49,0.91
		c0.24,0.56,0.39,1.13,0.46,1.71c0,0.1,0.01,0.2,0.03,0.28v11.94c0,1.28,0.21,2.24,0.63,2.9c0.31,0.47,0.64,0.76,0.99,0.87
		l0.18,0.05v0.15h-3.67c-0.57,0-1.1-0.14-1.57-0.42c-0.47-0.28-0.85-0.65-1.14-1.12c-1.24,0.47-2.68,0.87-4.33,1.19
		C237.92,43.75,236.78,43.87,235.78,43.87z M239.08,42.86c0.36,0,0.73-0.03,1.12-0.1c1.19-0.28,2.22-0.59,3.08-0.91
		c-0.15-0.36-0.22-0.75-0.22-1.17V30.48c-0.8,0.09-1.81,0.27-3.06,0.54c-0.98,0.26-1.87,0.86-2.66,1.78
		c-1.09,1.27-1.63,3.09-1.63,5.47c0,0.31,0.01,0.63,0.03,0.96C235.9,41.65,237.01,42.86,239.08,42.86z"/>
	<path class="st0" d="M259.79,43.91h-8.61v-0.15l0.17-0.04c0.11-0.03,0.25-0.11,0.41-0.22c0.16-0.11,0.33-0.28,0.5-0.51
		c0.17-0.23,0.32-0.55,0.45-0.94c0.13-0.4,0.21-0.9,0.26-1.5V27.68c0-0.56-0.02-1.05-0.07-1.47s-0.11-0.77-0.19-1.05
		c-0.08-0.29-0.16-0.52-0.26-0.71c-0.09-0.18-0.19-0.33-0.28-0.43c-0.09-0.1-0.18-0.18-0.26-0.22c-0.08-0.05-0.14-0.08-0.19-0.08
		l-0.06-0.01v-0.22c0.47,0,0.91-0.01,1.31-0.04c0.87-0.06,1.61-0.17,2.21-0.31c0.6-0.15,1.08-0.32,1.46-0.51
		c0.37-0.19,0.66-0.37,0.86-0.54c0.2-0.18,0.33-0.32,0.4-0.44l0.12-0.18v19.08c0.04,0.61,0.13,1.11,0.26,1.5
		c0.13,0.39,0.28,0.71,0.45,0.94c0.17,0.24,0.34,0.41,0.5,0.52c0.16,0.11,0.3,0.18,0.41,0.22l0.17,0.04V43.91z M255.09,18.74
		l-3.31-3.31l3.31-3.31l3.31,3.31L255.09,18.74z"/>
	<path class="st0" d="M269.67,43.97h-8.6v-0.15l0.17-0.05c0.1-0.03,0.24-0.09,0.4-0.21s0.34-0.28,0.51-0.51
		c0.17-0.23,0.32-0.55,0.45-0.94c0.13-0.4,0.21-0.9,0.26-1.5V27.75c0-0.56-0.02-1.05-0.07-1.47s-0.11-0.77-0.19-1.05
		c-0.08-0.29-0.16-0.52-0.26-0.71c-0.09-0.18-0.19-0.33-0.28-0.43c-0.09-0.1-0.18-0.18-0.26-0.22c-0.08-0.05-0.14-0.08-0.18-0.08
		l-0.08-0.01v-0.22c0.47,0,0.91-0.01,1.31-0.04c0.87-0.06,1.61-0.16,2.2-0.31c0.59-0.15,1.08-0.32,1.46-0.51
		c0.38-0.19,0.66-0.37,0.86-0.55c0.2-0.17,0.33-0.32,0.41-0.44l0.1-0.18v3.36c0.26-0.25,0.52-0.48,0.8-0.71
		c2.19-1.75,4.58-2.63,7.16-2.63h0.12c1.36,0.05,2.63,0.33,3.81,0.83c1.5,0.66,2.68,1.66,3.56,3c0.87,1.34,1.31,2.82,1.31,4.43
		v10.77c0.04,0.6,0.13,1.1,0.26,1.5c0.13,0.4,0.29,0.71,0.46,0.94c0.17,0.23,0.34,0.4,0.5,0.51c0.16,0.11,0.3,0.18,0.41,0.21
		l0.15,0.05v0.15h-8.6v-0.15l0.17-0.05c0.1-0.03,0.24-0.09,0.4-0.21c0.16-0.11,0.33-0.28,0.5-0.51c0.17-0.23,0.32-0.54,0.46-0.94
		c0.13-0.4,0.22-0.9,0.26-1.5V28.01c-0.01-0.49-0.08-1.07-0.21-1.76c-0.13-0.68-0.36-1.36-0.69-2.02c-0.33-0.66-0.82-1.2-1.46-1.6
		c-0.55-0.34-1.24-0.51-2.07-0.51c-0.42,0-0.86,0.05-1.33,0.14c-2.26,0.48-4.25,1.6-5.96,3.38V40.6c0.08,1.08,0.32,1.89,0.72,2.44
		c0.29,0.4,0.59,0.65,0.91,0.73l0.15,0.05V43.97z"/>
</g>
</svg>
